<svg width="99" height="16" viewBox="0 0 99 16" fill="none" xmlns="http://www.w3.org/2000/svg">
<path d="M52.3532 7.67224C52.3532 6.64994 52.7648 5.82406 53.5888 5.19375C54.4125 4.56369 55.498 4.24859 56.8454 4.24859C58.1439 4.24859 59.1981 4.57061 60.0081 5.21477C60.8247 5.852 61.2503 6.68493 61.2854 7.71415H58.8562C58.8144 7.23118 58.6118 6.85328 58.2488 6.57998C57.8857 6.30691 57.4006 6.17026 56.7931 6.17026C56.2209 6.17026 55.76 6.29623 55.411 6.54851C55.0618 6.79352 54.8873 7.11906 54.8873 7.52537C54.8873 8.14147 55.418 8.57913 56.4787 8.83799L58.458 9.2794C59.5681 9.53826 60.3603 9.9023 60.8355 10.3715C61.3099 10.8403 61.5473 11.488 61.5473 12.3142C61.5473 13.3646 61.1078 14.2152 60.2281 14.8663C59.3485 15.5105 58.2069 15.8324 56.8039 15.8324C55.4214 15.8324 54.3081 15.5173 53.4634 14.8872C52.6256 14.2499 52.1609 13.3994 52.0703 12.3352H54.6359C54.7124 12.8464 54.943 13.2381 55.3274 13.5113C55.7182 13.7844 56.2415 13.9212 56.8982 13.9212C57.5335 13.9212 58.0324 13.8022 58.3953 13.5639C58.7654 13.319 58.9505 12.9898 58.9505 12.577C58.9505 12.2551 58.8352 11.9994 58.6047 11.81C58.3812 11.6142 58.0013 11.4458 57.4635 11.3059L55.4423 10.8335C53.3828 10.3504 52.3532 9.29677 52.3532 7.67224Z" fill="url(#paint0_linear_752_5440)"/>
<path d="M80.3308 6.27447C79.6072 6.27447 78.8925 6.52663 78.4051 7.03085C77.9251 7.52779 77.6572 8.16831 77.6015 8.95229H82.9841C82.9565 8.16138 82.709 7.51723 82.2427 7.02017C81.7769 6.52299 81.0684 6.27447 80.3308 6.27447ZM82.9944 12.2818H85.4265C85.2597 13.3392 84.7274 14.1968 83.8299 14.8546C82.932 15.506 81.7232 15.8315 80.422 15.8315C78.7657 15.8315 77.3578 15.3206 76.4117 14.2979C75.465 13.2691 74.9922 11.8651 74.9922 10.087C74.9922 8.32245 75.4618 6.90817 76.401 5.84397C77.3478 4.77977 78.7385 4.24761 80.3319 4.24761C81.8975 4.24761 83.2345 4.75512 84.1533 5.77036C85.0716 6.77845 85.531 8.12992 85.531 9.82419V10.6751H77.5809V10.8324C77.5809 11.7287 77.8312 12.4497 78.3322 12.9958C78.8401 13.5418 79.6278 13.815 80.4766 13.815C81.075 13.815 81.6967 13.6784 82.1283 13.4057C82.5666 13.1255 82.8555 12.751 82.9944 12.2818Z" fill="url(#paint1_linear_752_5440)"/>
<path d="M30.045 4.40672V15.6851H27.5512V14.2279C27.1181 14.7629 26.5802 15.1644 25.9375 15.4316C25.3088 15.6994 24.6102 15.833 23.8419 15.833C22.7521 15.833 21.7742 15.5936 20.9078 15.1148C20.0557 14.6361 19.3851 13.9601 18.8959 13.0873C18.4212 12.2144 18.1836 11.2005 18.1836 10.0459C18.1836 8.8914 18.4212 7.8846 18.8959 7.02573C19.3851 6.15265 20.0557 5.47679 20.9078 4.99805C21.7742 4.5193 22.7521 4.28005 23.8419 4.28005C24.5683 4.28005 25.2319 4.40672 25.8326 4.66018C26.4475 4.91364 26.9785 5.28673 27.4255 5.77956V4.40672H30.045ZM24.1352 13.5732C25.0992 13.5732 25.8956 13.2493 26.5242 12.6017C27.1529 11.954 27.4673 11.1019 27.4673 10.0459C27.4673 8.98989 27.1529 8.13806 26.5242 7.4905C25.8956 6.84259 25.0991 6.51869 24.1352 6.51869C23.1712 6.51869 22.3748 6.84259 21.7461 7.4905C21.1314 8.13794 20.8241 8.98989 20.8241 10.0459C20.8241 11.1019 21.1314 11.954 21.7461 12.6017C22.3748 13.2493 23.1712 13.5732 24.1352 13.5732Z" fill="url(#paint2_linear_752_5440)"/>
<path d="M50.4708 4.40574V15.6842H47.9737V14.2269C47.5401 14.7619 47.0013 15.1634 46.3579 15.4306C45.7284 15.6984 45.029 15.832 44.2595 15.832C43.1682 15.832 42.1889 15.5926 41.3216 15.1139C40.4684 14.6351 39.7968 13.9591 39.3071 13.0863C38.8317 12.2134 38.5938 11.1995 38.5938 10.0449C38.5938 8.89041 38.8318 7.88362 39.3071 7.02474C39.7968 6.15166 40.4685 5.47581 41.3216 4.99707C42.1889 4.51832 43.1682 4.27907 44.2595 4.27907C44.987 4.27907 45.6513 4.40574 46.2528 4.6592C46.8685 4.91266 47.4002 5.28574 47.8478 5.77858V4.40574H50.4708ZM44.5534 13.5722C45.5188 13.5722 46.3163 13.2483 46.9457 12.6007C47.5751 11.9531 47.8898 11.1009 47.8898 10.0449C47.8898 8.98891 47.5751 8.13708 46.9457 7.48952C46.3163 6.8416 45.5188 6.51771 44.5534 6.51771C43.5881 6.51771 42.7906 6.8416 42.1613 7.48952C41.5457 8.13696 41.238 8.98891 41.238 10.0449C41.238 11.1009 41.5457 11.9531 42.1613 12.6007C42.7906 13.2483 43.588 13.5722 44.5534 13.5722Z" fill="url(#paint3_linear_752_5440)"/>
<path d="M16.7995 10.8776C16.7995 12.3118 16.3191 13.4728 15.3584 14.362C14.3976 15.2437 13.1487 15.6847 11.6116 15.6847H0V0.167053H15.4518V2.50055H2.60679V6.12447H11.5263C13.0848 6.12447 14.3515 6.56541 15.3266 7.44718C16.3085 8.32179 16.7995 9.46558 16.7995 10.8776ZM2.60679 13.405H11.1422C12.1171 13.405 12.8714 13.1861 13.4051 12.7489C13.939 12.3116 14.2057 11.6878 14.2057 10.8776C14.2057 10.0603 13.9388 9.43295 13.4051 8.99576C12.8713 8.55858 12.1134 8.33987 11.1313 8.33987H2.60679V13.405Z" fill="url(#paint4_linear_752_5440)"/>
<path d="M36.0772 4.66018C35.4617 4.91364 34.93 5.28673 34.4824 5.77956V4.40672H31.8594V15.6851H34.3563C34.3563 15.6851 34.3563 11.4216 34.3563 10.3657C34.3563 8.65484 34.965 6.51857 38.0707 6.51857V4.28005C37.3432 4.28005 36.6789 4.40672 36.0772 4.66018Z" fill="url(#paint5_linear_752_5440)"/>
<path d="M69.4186 4.27958C68.6911 4.27958 68.0268 4.40625 67.4255 4.65971C66.8096 4.91317 66.2777 5.28626 65.8301 5.77909V0.345965H63.207V15.6847H65.8011V9.55034C65.8011 8.35888 66.779 6.68351 68.4626 6.68351C69.2055 6.68351 69.6173 6.90093 69.9991 7.33612C70.3883 7.77143 70.5825 8.38553 70.5825 9.17867V15.6847H73.1766V8.64181C73.1766 6.36478 71.8785 4.27958 69.4186 4.27958Z" fill="url(#paint6_linear_752_5440)"/>
<path d="M95.3599 4.40588L92.0689 13.5645L88.7786 4.40588H86.0547L90.2127 15.6843H93.925L98.0825 4.40588H95.3599Z" fill="url(#paint7_linear_752_5440)"/>
<defs>
<linearGradient id="paint0_linear_752_5440" x1="-2.40562" y1="11.3024" x2="98.0391" y2="8.16706" gradientUnits="userSpaceOnUse">
<stop stop-color="#E9A79E"/>
<stop offset="0.510417" stop-color="#9AF3D5"/>
<stop offset="1" stop-color="#8D537C"/>
</linearGradient>
<linearGradient id="paint1_linear_752_5440" x1="-2.40562" y1="11.3024" x2="98.0391" y2="8.16706" gradientUnits="userSpaceOnUse">
<stop stop-color="#E9A79E"/>
<stop offset="0.510417" stop-color="#9AF3D5"/>
<stop offset="1" stop-color="#8D537C"/>
</linearGradient>
<linearGradient id="paint2_linear_752_5440" x1="-2.40562" y1="11.3024" x2="98.0391" y2="8.16706" gradientUnits="userSpaceOnUse">
<stop stop-color="#E9A79E"/>
<stop offset="0.510417" stop-color="#9AF3D5"/>
<stop offset="1" stop-color="#8D537C"/>
</linearGradient>
<linearGradient id="paint3_linear_752_5440" x1="-2.40562" y1="11.3024" x2="98.0391" y2="8.16706" gradientUnits="userSpaceOnUse">
<stop stop-color="#E9A79E"/>
<stop offset="0.510417" stop-color="#9AF3D5"/>
<stop offset="1" stop-color="#8D537C"/>
</linearGradient>
<linearGradient id="paint4_linear_752_5440" x1="-2.40562" y1="11.3024" x2="98.0391" y2="8.16706" gradientUnits="userSpaceOnUse">
<stop stop-color="#E9A79E"/>
<stop offset="0.510417" stop-color="#9AF3D5"/>
<stop offset="1" stop-color="#8D537C"/>
</linearGradient>
<linearGradient id="paint5_linear_752_5440" x1="-2.40562" y1="11.3024" x2="98.0391" y2="8.16706" gradientUnits="userSpaceOnUse">
<stop stop-color="#E9A79E"/>
<stop offset="0.510417" stop-color="#9AF3D5"/>
<stop offset="1" stop-color="#8D537C"/>
</linearGradient>
<linearGradient id="paint6_linear_752_5440" x1="-2.40562" y1="11.3024" x2="98.0391" y2="8.16706" gradientUnits="userSpaceOnUse">
<stop stop-color="#E9A79E"/>
<stop offset="0.510417" stop-color="#9AF3D5"/>
<stop offset="1" stop-color="#8D537C"/>
</linearGradient>
<linearGradient id="paint7_linear_752_5440" x1="-2.40562" y1="11.3024" x2="98.0391" y2="8.16706" gradientUnits="userSpaceOnUse">
<stop stop-color="#E9A79E"/>
<stop offset="0.510417" stop-color="#9AF3D5"/>
<stop offset="1" stop-color="#8D537C"/>
</linearGradient>
</defs>
</svg>
