<svg width="89" height="14" viewBox="0 0 89 14" fill="none" xmlns="http://www.w3.org/2000/svg">
<path d="M47.4599 6.70779C47.4599 5.79428 47.8276 5.05627 48.5639 4.49303C49.3 3.93 50.27 3.64844 51.474 3.64844C52.6343 3.64844 53.5763 3.93619 54.3002 4.51181C55.0299 5.08124 55.4102 5.82554 55.4416 6.74524H53.2709C53.2335 6.31366 53.0524 5.97597 52.7281 5.73175C52.4036 5.48774 51.9702 5.36563 51.4273 5.36563C50.9159 5.36563 50.5041 5.4782 50.1923 5.70364C49.8802 5.92258 49.7242 6.21348 49.7242 6.57656C49.7242 7.1271 50.1985 7.51819 51.1463 7.7495L52.915 8.14395C53.907 8.37527 54.6149 8.70058 55.0395 9.11988C55.4634 9.53877 55.6756 10.1175 55.6756 10.8559C55.6756 11.7944 55.2828 12.5546 54.4967 13.1364C53.7108 13.712 52.6906 13.9997 51.4369 13.9997C50.2015 13.9997 49.2067 13.7181 48.4519 13.1551C47.7032 12.5855 47.288 11.8256 47.207 10.8746H49.4997C49.568 11.3314 49.774 11.6815 50.1175 11.9256C50.4668 12.1696 50.9344 12.2918 51.5212 12.2918C52.0889 12.2918 52.5347 12.1855 52.859 11.9726C53.1897 11.7537 53.3551 11.4596 53.3551 11.0906C53.3551 10.803 53.2521 10.5745 53.0461 10.4053C52.8464 10.2303 52.5069 10.0799 52.0263 9.95482L50.2202 9.53269C48.3799 9.101 47.4599 8.15947 47.4599 6.70779Z" fill="#F5F5F7"/>
<path d="M72.461 5.46012C71.8144 5.46012 71.1757 5.68545 70.7402 6.13602C70.3112 6.58009 70.0718 7.15245 70.0221 7.85301H74.8319C74.8072 7.14626 74.5861 6.57065 74.1695 6.12648C73.7532 5.6822 73.1201 5.46012 72.461 5.46012ZM74.8411 10.8282H77.0144C76.8654 11.7731 76.3897 12.5394 75.5877 13.1273C74.7854 13.7094 73.7052 14.0003 72.5425 14.0003C71.0624 14.0003 69.8043 13.5437 68.9589 12.6299C68.1129 11.7105 67.6904 10.4559 67.6904 8.86702C67.6904 7.29019 68.1101 6.0264 68.9493 5.07543C69.7954 4.12446 71.0381 3.64893 72.462 3.64893C73.861 3.64893 75.0557 4.10243 75.8767 5.00965C76.6973 5.91048 77.1078 7.11815 77.1078 8.63214V9.3925H70.0037V9.53307C70.0037 10.334 70.2273 10.9782 70.675 11.4663C71.1289 11.9542 71.8328 12.1983 72.5912 12.1983C73.126 12.1983 73.6815 12.0763 74.0672 11.8326C74.4589 11.5822 74.717 11.2475 74.8411 10.8282Z" fill="#F5F5F7"/>
<path d="M27.526 3.78946V13.8678H25.2976V12.5656C24.9105 13.0437 24.4299 13.4025 23.8556 13.6412C23.2938 13.8805 22.6695 13.9999 21.9829 13.9999C21.0092 13.9999 20.1353 13.786 19.3611 13.3582C18.5996 12.9304 18.0004 12.3264 17.5633 11.5464C17.139 10.7664 16.9268 9.86034 16.9268 8.82859C16.9268 7.79695 17.139 6.89729 17.5633 6.1298C18.0004 5.34962 18.5996 4.74568 19.3611 4.31787C20.1353 3.89007 21.0092 3.67627 21.9829 3.67627C22.6321 3.67627 23.2251 3.78946 23.7619 4.01595C24.3113 4.24244 24.7858 4.57583 25.1852 5.01623V3.78946H27.526ZM22.245 11.9806C23.1065 11.9806 23.8182 11.6911 24.3799 11.1125C24.9417 10.5337 25.2226 9.77222 25.2226 8.82859C25.2226 7.88497 24.9417 7.12378 24.3799 6.54512C23.8182 5.96615 23.1064 5.67671 22.245 5.67671C21.3836 5.67671 20.672 5.96615 20.1102 6.54512C19.5609 7.12367 19.2863 7.88497 19.2863 8.82859C19.2863 9.77222 19.5609 10.5337 20.1102 11.1125C20.672 11.6911 21.3836 11.9806 22.245 11.9806Z" fill="#F5F5F7"/>
<path d="M45.7783 3.78897V13.8673H43.5469V12.5652C43.1594 13.0432 42.678 13.402 42.103 13.6407C41.5405 13.88 40.9155 13.9994 40.2279 13.9994C39.2528 13.9994 38.3777 13.7855 37.6026 13.3577C36.8402 12.9299 36.2401 12.3259 35.8025 11.5459C35.3776 10.7659 35.165 9.85985 35.165 8.82811C35.165 7.79647 35.3777 6.8968 35.8025 6.12931C36.2401 5.34913 36.8403 4.74519 37.6026 4.31738C38.3777 3.88958 39.2528 3.67578 40.2279 3.67578C40.878 3.67578 41.4716 3.78897 42.0091 4.01547C42.5593 4.24196 43.0344 4.57535 43.4344 5.01574V3.78897H45.7783ZM40.4905 11.9801C41.3532 11.9801 42.0658 11.6907 42.6283 11.112C43.1907 10.5332 43.4719 9.77173 43.4719 8.82811C43.4719 7.88448 43.1907 7.12329 42.6283 6.54463C42.0658 5.96566 41.3532 5.67622 40.4905 5.67622C39.6279 5.67622 38.9153 5.96566 38.353 6.54463C37.8029 7.12318 37.5279 7.88448 37.5279 8.82811C37.5279 9.77173 37.8029 10.5332 38.353 11.112C38.9153 11.6907 39.6278 11.9801 40.4905 11.9801Z" fill="#F5F5F7"/>
<path d="M15.6896 9.57094C15.6896 10.8525 15.2604 11.89 14.4019 12.6845C13.5433 13.4725 12.4273 13.8665 11.0538 13.8665H0.677734V0H14.4853V2.08521H3.00714V5.32353H10.9776C12.3702 5.32353 13.5021 5.71756 14.3734 6.5055C15.2509 7.28705 15.6896 8.30914 15.6896 9.57094ZM3.00714 11.8293H10.6343C11.5054 11.8293 12.1795 11.6338 12.6564 11.2431C13.1335 10.8524 13.3718 10.2949 13.3718 9.57094C13.3718 8.84059 13.1334 8.27997 12.6564 7.88931C12.1794 7.49864 11.5022 7.3032 10.6246 7.3032H3.00714V11.8293Z" fill="#F5F5F7"/>
<path d="M32.9165 4.01547C32.3664 4.24196 31.8913 4.57535 31.4914 5.01574V3.78897H29.1475V13.8673H31.3787C31.3787 13.8673 31.3787 10.0575 31.3787 9.11387C31.3787 7.58508 31.9226 5.67612 34.6978 5.67612V3.67578C34.0477 3.67578 33.4541 3.78897 32.9165 4.01547Z" fill="#F5F5F7"/>
<path d="M62.7098 3.6762C62.0597 3.6762 61.4661 3.78939 60.9287 4.01588C60.3784 4.24237 59.9032 4.57576 59.5032 5.01615V3.78939V0.161133H57.1592V13.8678H59.4772V8.38614C59.4772 7.32145 60.3511 5.82435 61.8555 5.82435C62.5194 5.82435 62.8873 6.01863 63.2285 6.40752C63.5763 6.7965 63.7498 7.34526 63.7498 8.05401V13.8678H66.0679V7.57427C66.0679 5.53953 64.908 3.6762 62.7098 3.6762Z" fill="#F5F5F7"/>
<path d="M85.8903 3.78809L82.9494 11.9722L80.0092 3.78809H77.5752L81.2908 13.8665H84.608L88.3232 3.78809H85.8903Z" fill="#F5F5F7"/>
</svg>
