<svg xmlns="http://www.w3.org/2000/svg"><symbol id="icon-play" viewBox="0 0 1024 1024"><path d="M512 1024C229.376 1024 0 794.624 0 512S229.376 0 512 0s512 229.376 512 512-229.376 512-512 512zm0-949.248C271.36 74.752 75.776 271.36 75.776 512S271.36 949.248 512 949.248 949.248 752.64 949.248 512 752.64 74.752 512 74.752zm139.264 476.16c34.816-21.504 34.816-56.32 0-77.824l-209.92-125.952c-35.84-21.504-64.512-4.096-64.512 36.864v256c0 40.96 28.672 57.344 64.512 36.864l209.92-125.952z"/></symbol><symbol id="icon-right" viewBox="0 0 7 12"><path d="M4.878 5.947L4.93 6l-.053.053-4.565 4.554a.76.76 0 0 0-.238.557c0 .213.075.392.226.54a.75.75 0 0 0 .546.221.723.723 0 0 0 .535-.215l5.153-5.13A.792.792 0 0 0 6.784 6a.746.746 0 0 0-.247-.577l-.002-.003L1.383.292A.773.773 0 0 0 .847.075a.751.751 0 0 0-.546.222.723.723 0 0 0-.226.54.76.76 0 0 0 .238.556l4.565 4.554z"/></symbol></svg>