<svg width="7" height="12" viewBox="0 0 7 12" xmlns="http://www.w3.org/2000/svg">
<path d="M4.87783 5.9469L4.93106 6L4.87783 6.0531L0.31292 10.6067C0.312906 10.6067 0.312893 10.6067 0.312879 10.6067C0.152943 10.7667 0.075 10.9513 0.075 11.1638C0.075 11.3774 0.149848 11.5557 0.301008 11.7034C0.452599 11.8516 0.633358 11.925 0.847458 11.925C1.06206 11.925 1.23854 11.8531 1.382 11.7097L1.38211 11.7096L6.53454 6.57974C6.53458 6.5797 6.53462 6.57966 6.53465 6.57962C6.70225 6.41197 6.78376 6.21981 6.78376 6C6.78376 5.76385 6.70143 5.57334 6.53689 5.42252L6.53685 5.42257L6.53465 5.42038L1.38328 0.291605C1.22304 0.145737 1.04526 0.0749998 0.847458 0.0749998C0.633358 0.0749998 0.452599 0.148431 0.301008 0.296577C0.149848 0.444301 0.075 0.62265 0.075 0.836159C0.075 1.04869 0.152935 1.23328 0.312854 1.39323L0.31292 1.3933L4.87783 5.9469Z" stroke-width="0.15"/>
</svg>
