<svg width="26" height="26" viewBox="0 0 26 26" fill="none" xmlns="http://www.w3.org/2000/svg">
<rect width="26" height="26" rx="5" fill="url(#paint0_linear_1100_148)"/>
<path d="M21.3671 8.00522L16.2011 13.0001L21.3671 17.9951C21.4605 17.8051 21.5171 17.5951 21.5171 17.3709V8.6294C21.5171 8.40513 21.4605 8.19517 21.3671 8.00522Z" fill="#F5F5F7"/>
<path d="M20.0194 7.17242H5.97984C5.74939 7.17242 5.53363 7.22756 5.33844 7.31844L11.9411 13.7115C12.525 14.2796 13.4743 14.2796 14.0581 13.7115L20.6608 7.31844C20.4656 7.22756 20.2499 7.17242 20.0194 7.17242Z" fill="#F5F5F7"/>
<path d="M4.63271 8.00522C4.53932 8.19517 4.48267 8.40513 4.48267 8.6294V17.3709C4.48267 17.5952 4.53932 17.8052 4.63271 17.9951L9.79872 13.0001L4.63271 8.00522Z" fill="#F5F5F7"/>
<path d="M15.4948 13.6867L14.7638 14.3981C13.791 15.3447 12.2082 15.3447 11.2354 14.3981L10.5045 13.6867L5.33844 18.6816C5.53363 18.7725 5.74939 18.8276 5.97984 18.8276H20.0194C20.2499 18.8276 20.4656 18.7725 20.6608 18.6816L15.4948 13.6867Z" fill="#F5F5F7"/>
<defs>
<linearGradient id="paint0_linear_1100_148" x1="13.182" y1="25.8956" x2="13.2073" y2="0.313881" gradientUnits="userSpaceOnUse">
<stop stop-color="#5CC3F6"/>
<stop offset="1" stop-color="#376DE9"/>
</linearGradient>
</defs>
</svg>
