<svg width="26" height="26" viewBox="0 0 26 26" fill="none" xmlns="http://www.w3.org/2000/svg">
<path fill-rule="evenodd" clip-rule="evenodd" d="M20.5291 16.5909C20.8872 17.2167 20.2222 19.6676 17.9717 19.7197C16.5907 19.7719 15.7212 19.3547 15.312 19.1983C14.3402 18.8854 13.4707 18.3639 12.6523 17.8425C11.2201 16.9038 10.0437 15.8609 8.76504 14.5572C6.36108 12.002 5.5427 9.75972 5.38926 8.19532C5.23581 6.63092 6.82141 5.37939 7.94667 5.37939C8.45815 5.37939 8.71389 5.74442 9.17422 6.42233C9.73685 7.20453 10.4529 8.29961 10.7087 8.82108C10.9644 9.34255 10.811 10.0205 10.2483 10.9069C10.0437 11.2198 10.0437 11.637 10.2995 11.9499C10.7087 12.5235 11.2713 13.0971 11.8851 13.6707C12.55 14.2965 13.2661 14.818 13.9822 15.2873C14.289 15.4959 14.6471 15.4959 14.954 15.2873L15.67 14.818C16.1815 14.4529 16.8465 14.4529 17.3579 14.7137C17.9717 15.0265 18.432 15.2351 18.6366 15.3394C19.7107 15.913 20.3757 16.3302 20.5291 16.5909Z" fill="url(#paint0_linear_256_2187)"/>
<defs>
<linearGradient id="paint0_linear_256_2187" x1="12.9996" y1="5.37939" x2="12.9996" y2="19.7242" gradientUnits="userSpaceOnUse">
<stop stop-color="#7DE777"/>
<stop offset="1" stop-color="#5CC34D"/>
</linearGradient>
</defs>
</svg>
