<svg width="26" height="26" viewBox="0 0 26 26" fill="none" xmlns="http://www.w3.org/2000/svg">
<rect width="26" height="26" rx="5" fill="url(#paint0_linear_1100_143)"/>
<path d="M4.75551 13.4592C6.30595 12.6051 8.03667 11.8924 9.65376 11.1759C12.4358 10.0025 15.2289 8.84937 18.0502 7.77584C18.5991 7.59292 19.5854 7.41403 19.6821 8.2275C19.6291 9.37895 19.4113 10.5237 19.2618 11.6684C18.8826 14.1857 18.4442 16.6944 18.0168 19.2034C17.8695 20.0392 16.8226 20.4718 16.1527 19.937C14.5427 18.8495 12.9205 17.7727 11.3311 16.66C10.8105 16.131 11.2932 15.3713 11.7582 14.9935C13.0842 13.6868 14.4904 12.5766 15.7471 11.2023C16.0861 10.3837 15.0845 11.0736 14.7541 11.285C12.9389 12.5359 11.168 13.8632 9.25416 14.9626C8.27656 15.5007 7.13716 15.0408 6.16 14.7405C5.28386 14.3778 3.99998 14.0123 4.75542 13.4592L4.75551 13.4592Z" fill="#F5F5F7"/>
<defs>
<linearGradient id="paint0_linear_1100_143" x1="9.75152" y1="1.0842" x2="3.25152" y2="16.25" gradientUnits="userSpaceOnUse">
<stop stop-color="#37AEE2"/>
<stop offset="1" stop-color="#1E96C8"/>
</linearGradient>
</defs>
</svg>
