<svg width="26" height="26" viewBox="0 0 26 26" fill="none" xmlns="http://www.w3.org/2000/svg">
<rect width="26" height="26" rx="5" fill="#FF0000"/>
<path d="M20.712 8.91779L20.7322 9.04958C20.5372 8.35767 20.0107 7.82377 19.3416 7.62944L19.3275 7.62608C18.0694 7.28449 13.0068 7.28449 13.0068 7.28449C13.0068 7.28449 7.95697 7.27777 6.68611 7.62608C6.00428 7.82377 5.47711 8.35767 5.28547 9.03546L5.28211 9.04958C4.81209 11.5046 4.80873 14.4544 5.30295 17.0829L5.28211 16.9498C5.47711 17.6417 6.00361 18.1756 6.67266 18.3699L6.68678 18.3733C7.94352 18.7155 13.0075 18.7155 13.0075 18.7155C13.0075 18.7155 18.0566 18.7155 19.3282 18.3733C20.0107 18.1756 20.5378 17.6417 20.7295 16.9639L20.7328 16.9498C20.9467 15.808 21.069 14.4941 21.069 13.152C21.069 13.1029 21.069 13.0531 21.0684 13.0034C21.069 12.9576 21.069 12.9032 21.069 12.8487C21.069 11.5059 20.9467 10.192 20.712 8.91779ZM11.3917 15.455V10.5511L15.605 13.0067L11.3917 15.455Z" fill="#F5F5F7"/>
</svg>
