<svg width="26" height="26" viewBox="0 0 26 26" fill="none" xmlns="http://www.w3.org/2000/svg">
<rect width="26" height="26" rx="5" fill="url(#paint0_linear_1100_150)"/>
<path d="M21.9184 9.30621C21.8764 8.35347 21.7223 7.69846 21.5016 7.13089C21.2739 6.52843 20.9237 5.98904 20.4647 5.54065C20.0163 5.08528 19.4734 4.73144 18.8779 4.50731C18.3071 4.2866 17.6555 4.13253 16.7027 4.09052C15.7429 4.04496 15.4381 4.03442 13.0037 4.03442C10.5692 4.03442 10.2645 4.04496 9.30816 4.08697C8.35541 4.12897 7.70041 4.28318 7.13298 4.50375C6.53038 4.73144 5.99099 5.08172 5.5426 5.54065C5.08723 5.98904 4.73353 6.53198 4.50926 7.12747C4.28855 7.69846 4.13448 8.34991 4.09248 9.30266C4.04691 10.2625 4.03638 10.5672 4.03638 13.0017C4.03638 15.4362 4.04691 15.7409 4.08892 16.6972C4.13093 17.65 4.28513 18.305 4.50584 18.8726C4.73353 19.475 5.08723 20.0144 5.5426 20.4628C5.99099 20.9182 6.53393 21.272 7.12942 21.4961C7.70041 21.7168 8.35186 21.8709 9.30474 21.9129C10.2609 21.9551 10.5658 21.9655 13.0002 21.9655C15.4347 21.9655 15.7394 21.9551 16.6957 21.9129C17.6485 21.8709 18.3035 21.7168 18.8709 21.4961C20.076 21.0302 21.0287 20.0775 21.4946 18.8726C21.7152 18.3016 21.8694 17.65 21.9114 16.6972C21.9534 15.7409 21.964 15.4362 21.964 13.0017C21.964 10.5672 21.9604 10.2625 21.9184 9.30621ZM20.3037 16.6272C20.2651 17.5029 20.118 17.9758 19.9954 18.291C19.6941 19.0722 19.0741 19.6922 18.293 19.9935C17.9777 20.1161 17.5014 20.2632 16.6291 20.3016C15.6833 20.3437 15.3997 20.3541 13.0072 20.3541C10.6148 20.3541 10.3275 20.3437 9.3852 20.3016C8.50949 20.2632 8.0366 20.1161 7.72134 19.9935C7.33261 19.8498 6.97877 19.6221 6.69156 19.3244C6.39382 19.0336 6.16614 18.6833 6.02246 18.2946C5.89986 17.9793 5.75277 17.5029 5.71432 16.6307C5.67218 15.685 5.66178 15.4012 5.66178 13.0087C5.66178 10.6162 5.67218 10.329 5.71432 9.38681C5.75277 8.51109 5.89986 8.03821 6.02246 7.72295C6.16614 7.33408 6.39382 6.98038 6.69512 6.69303C6.98575 6.39529 7.33603 6.1676 7.7249 6.02407C8.04016 5.90147 8.5166 5.75438 9.38875 5.71579C10.3345 5.67378 10.6183 5.66325 13.0106 5.66325C15.4067 5.66325 15.6903 5.67378 16.6327 5.71579C17.5084 5.75438 17.9813 5.90147 18.2965 6.02407C18.6853 6.1676 19.0391 6.39529 19.3263 6.69303C19.624 6.9838 19.8517 7.33408 19.9954 7.72295C20.118 8.03821 20.2651 8.51451 20.3037 9.38681C20.3457 10.3326 20.3562 10.6162 20.3562 13.0087C20.3562 15.4012 20.3457 15.6814 20.3037 16.6272Z" fill="#F5F5F7"/>
<path d="M13.005 8.39543C10.462 8.39543 8.39875 10.4586 8.39875 13.0017C8.39875 15.5448 10.462 17.6079 13.005 17.6079C15.5481 17.6079 17.6112 15.5448 17.6112 13.0017C17.6112 10.4586 15.5481 8.39543 13.005 8.39543ZM13.005 15.9896C11.3552 15.9896 10.017 14.6516 10.017 13.0017C10.017 11.3518 11.3552 10.0137 13.005 10.0137C14.6549 10.0137 15.993 11.3518 15.993 13.0017C15.993 14.6516 14.6549 15.9896 13.005 15.9896Z" fill="#F5F5F7"/>
<path d="M18.8694 8.21328C18.8694 8.80713 18.3879 9.28863 17.7939 9.28863C17.2001 9.28863 16.7186 8.80713 16.7186 8.21328C16.7186 7.6193 17.2001 7.13794 17.7939 7.13794C18.3879 7.13794 18.8694 7.6193 18.8694 8.21328Z" fill="#F5F5F7"/>
<defs>
<linearGradient id="paint0_linear_1100_150" x1="1.74568" y1="24.3061" x2="25.8365" y2="3.45173" gradientUnits="userSpaceOnUse">
<stop stop-color="#FFDD55"/>
<stop offset="0.5" stop-color="#FF543E"/>
<stop offset="1" stop-color="#C837AB"/>
</linearGradient>
</defs>
</svg>
