<svg width="26" height="26" viewBox="0 0 26 26" fill="none" xmlns="http://www.w3.org/2000/svg">
<rect width="26" height="26" rx="5" fill="#2787F5"/>
<path d="M18.3228 13.6912C18.0619 13.3617 18.1365 13.2152 18.3228 12.9206C18.3261 12.9173 20.4799 9.94118 20.7018 8.93188L20.7031 8.93121C20.8134 8.5634 20.7031 8.29309 20.1699 8.29309H18.4055C17.9563 8.29309 17.7492 8.52507 17.6382 8.78463C17.6382 8.78463 16.7399 10.935 15.469 12.3289C15.0589 12.7317 14.8692 12.8608 14.6453 12.8608C14.5351 12.8608 14.3636 12.7317 14.3636 12.3639V8.93121C14.3636 8.49011 14.2378 8.29309 13.866 8.29309H11.0916C10.8099 8.29309 10.6425 8.49885 10.6425 8.69049C10.6425 9.10873 11.2779 9.20488 11.3438 10.3816V12.9348C11.3438 13.4942 11.2422 13.5971 11.017 13.5971C10.4172 13.5971 8.96142 11.438 8.09871 8.96685C7.92455 8.48742 7.75443 8.29376 7.3019 8.29376H5.53681C5.03318 8.29376 4.93164 8.52575 4.93164 8.7853C4.93164 9.24388 5.53143 11.524 7.72081 14.5365C9.17995 16.5927 11.2348 17.7069 13.1042 17.7069C14.2278 17.7069 14.3649 17.4594 14.3649 17.0338C14.3649 15.069 14.2634 14.8834 14.8262 14.8834C15.0871 14.8834 15.5363 15.0125 16.5852 16.0043C17.7842 17.1804 17.9812 17.7069 18.6522 17.7069H20.4167C20.9196 17.7069 21.1745 17.4594 21.0279 16.9713C20.6923 15.9445 18.425 13.8324 18.3228 13.6912Z" fill="#F5F5F7"/>
</svg>
