<svg width="26" height="26" viewBox="0 0 26 26" fill="none" xmlns="http://www.w3.org/2000/svg">
<rect width="26" height="26" rx="5" fill="url(#paint0_linear_1100_146)"/>
<path d="M17.0779 14.7571L17.0711 14.8131C15.4282 13.9943 15.2564 13.8852 15.0442 14.2035C14.897 14.4239 14.4682 14.9237 14.3389 15.0716C14.2082 15.2173 14.0782 15.2285 13.8563 15.1277C13.6322 15.0156 12.9127 14.7803 12.061 14.0182C11.3976 13.4243 10.9523 12.6958 10.8208 12.4717C10.6019 12.0937 11.0599 12.0399 11.4768 11.2509C11.5515 11.094 11.5134 10.9707 11.4581 10.8594C11.402 10.7474 10.956 9.6491 10.7692 9.21129C10.5899 8.77498 10.4054 8.83027 10.2672 8.83027C9.83684 8.79291 9.52231 8.79889 9.24513 9.08727C8.03929 10.4127 8.34336 11.7799 9.37513 13.2338C11.4028 15.8875 12.4831 16.3761 14.4585 17.0545C14.9919 17.2241 15.4783 17.2002 15.8631 17.1449C16.2919 17.0769 17.1832 16.6062 17.3692 16.0795C17.5597 15.5528 17.5597 15.1157 17.5037 15.0149C17.4484 14.914 17.302 14.858 17.0779 14.7571Z" fill="#F5F5F7"/>
<path d="M19.3662 6.6116C13.6216 1.05831 4.11459 5.08599 4.11086 12.9202C4.11086 14.4862 4.52102 16.0133 5.3025 17.3618L4.0354 21.9655L8.76836 20.7313C14.6743 23.9215 21.9631 19.6853 21.9661 12.9247C21.9661 10.5519 21.0397 8.31875 19.355 6.64074L19.3662 6.6116ZM20.4734 12.9001C20.4689 18.6028 14.2088 22.1643 9.25772 19.2535L8.98876 19.0936L6.18709 19.8221L6.93793 17.0988L6.75937 16.8187C3.67828 11.9139 7.2181 5.50363 13.0545 5.50363C15.0374 5.50363 16.8984 6.27689 18.3 7.67773C19.7009 9.06661 20.4734 10.9277 20.4734 12.9001Z" fill="#F5F5F7"/>
<defs>
<linearGradient id="paint0_linear_1100_146" x1="13" y1="0" x2="13" y2="26" gradientUnits="userSpaceOnUse">
<stop stop-color="#7DE777"/>
<stop offset="1" stop-color="#5CC34D"/>
</linearGradient>
</defs>
</svg>
